<mxfile host="app.diagrams.net" modified="2021-12-14T21:21:44.905Z" agent="5.0 (Windows NT 10.0; Win64; x64) AppleWebKit/537.36 (KHTML, like Gecko) Chrome/94.0.4606.85 YaBrowser/21.11.4.626 (beta) Yowser/2.5 Safari/537.36" etag="MwT73G-2mrOX_f7CCcEH" version="15.9.6" type="github">
  <diagram id="cf8PJKQhlbjG8fTawS4X" name="Page-1">
    <mxGraphModel dx="1138" dy="631" grid="0" gridSize="10" guides="1" tooltips="1" connect="1" arrows="1" fold="1" page="1" pageScale="1" pageWidth="827" pageHeight="1169" math="0" shadow="0">
      <root>
        <mxCell id="0" />
        <mxCell id="1" parent="0" />
        <mxCell id="vx9EzyHT4CeqfJNpjVAX-1" value="Модератор" style="shape=umlActor;verticalLabelPosition=bottom;verticalAlign=top;html=1;outlineConnect=0;" vertex="1" parent="1">
          <mxGeometry x="150" y="290" width="30" height="60" as="geometry" />
        </mxCell>
        <mxCell id="vx9EzyHT4CeqfJNpjVAX-2" value="Авторизация" style="ellipse;whiteSpace=wrap;html=1;" vertex="1" parent="1">
          <mxGeometry x="240" y="200" width="120" height="80" as="geometry" />
        </mxCell>
        <mxCell id="vx9EzyHT4CeqfJNpjVAX-3" value="Модерация корпоративных клиентов" style="ellipse;whiteSpace=wrap;html=1;" vertex="1" parent="1">
          <mxGeometry x="240" y="450" width="120" height="80" as="geometry" />
        </mxCell>
        <mxCell id="vx9EzyHT4CeqfJNpjVAX-4" value="Восстановление пароля" style="ellipse;whiteSpace=wrap;html=1;" vertex="1" parent="1">
          <mxGeometry x="410" y="200" width="120" height="80" as="geometry" />
        </mxCell>
        <mxCell id="vx9EzyHT4CeqfJNpjVAX-5" value="Одобрение корпоративных клиентов" style="ellipse;whiteSpace=wrap;html=1;" vertex="1" parent="1">
          <mxGeometry x="414" y="340" width="120" height="80" as="geometry" />
        </mxCell>
        <mxCell id="vx9EzyHT4CeqfJNpjVAX-6" value="Отклонение корпоративных клиентов" style="ellipse;whiteSpace=wrap;html=1;" vertex="1" parent="1">
          <mxGeometry x="414" y="545" width="120" height="80" as="geometry" />
        </mxCell>
        <mxCell id="vx9EzyHT4CeqfJNpjVAX-7" value="Мониторинг негативных отзывов пасажиров" style="ellipse;whiteSpace=wrap;html=1;" vertex="1" parent="1">
          <mxGeometry x="240" y="560" width="120" height="80" as="geometry" />
        </mxCell>
        <mxCell id="vx9EzyHT4CeqfJNpjVAX-12" value="" style="endArrow=none;html=1;rounded=0;" edge="1" parent="1">
          <mxGeometry width="50" height="50" relative="1" as="geometry">
            <mxPoint x="470" y="310" as="sourcePoint" />
            <mxPoint x="190" y="310" as="targetPoint" />
          </mxGeometry>
        </mxCell>
        <mxCell id="vx9EzyHT4CeqfJNpjVAX-13" value="" style="endArrow=none;html=1;rounded=0;entryX=0.5;entryY=1;entryDx=0;entryDy=0;" edge="1" parent="1" target="vx9EzyHT4CeqfJNpjVAX-4">
          <mxGeometry width="50" height="50" relative="1" as="geometry">
            <mxPoint x="470" y="310" as="sourcePoint" />
            <mxPoint x="590" y="380" as="targetPoint" />
          </mxGeometry>
        </mxCell>
        <mxCell id="vx9EzyHT4CeqfJNpjVAX-14" value="" style="endArrow=none;html=1;rounded=0;entryX=0.5;entryY=1;entryDx=0;entryDy=0;" edge="1" parent="1" target="vx9EzyHT4CeqfJNpjVAX-2">
          <mxGeometry width="50" height="50" relative="1" as="geometry">
            <mxPoint x="300" y="310" as="sourcePoint" />
            <mxPoint x="330" y="280" as="targetPoint" />
          </mxGeometry>
        </mxCell>
        <mxCell id="vx9EzyHT4CeqfJNpjVAX-17" value="" style="endArrow=none;html=1;rounded=0;exitX=0;exitY=0.5;exitDx=0;exitDy=0;" edge="1" parent="1" source="vx9EzyHT4CeqfJNpjVAX-3">
          <mxGeometry width="50" height="50" relative="1" as="geometry">
            <mxPoint x="200" y="420" as="sourcePoint" />
            <mxPoint x="200" y="310" as="targetPoint" />
            <Array as="points">
              <mxPoint x="200" y="490" />
            </Array>
          </mxGeometry>
        </mxCell>
        <mxCell id="vx9EzyHT4CeqfJNpjVAX-20" value="" style="endArrow=classic;html=1;rounded=0;" edge="1" parent="1" source="vx9EzyHT4CeqfJNpjVAX-3" target="vx9EzyHT4CeqfJNpjVAX-5">
          <mxGeometry width="50" height="50" relative="1" as="geometry">
            <mxPoint x="540" y="430" as="sourcePoint" />
            <mxPoint x="590" y="380" as="targetPoint" />
            <Array as="points" />
          </mxGeometry>
        </mxCell>
        <mxCell id="vx9EzyHT4CeqfJNpjVAX-23" value="&amp;lt;&amp;lt;include&amp;gt;&amp;gt;" style="edgeLabel;html=1;align=center;verticalAlign=middle;resizable=0;points=[];" vertex="1" connectable="0" parent="vx9EzyHT4CeqfJNpjVAX-20">
          <mxGeometry x="-0.0976" relative="1" as="geometry">
            <mxPoint as="offset" />
          </mxGeometry>
        </mxCell>
        <mxCell id="vx9EzyHT4CeqfJNpjVAX-21" value="" style="endArrow=classic;html=1;rounded=0;" edge="1" parent="1" source="vx9EzyHT4CeqfJNpjVAX-3" target="vx9EzyHT4CeqfJNpjVAX-6">
          <mxGeometry width="50" height="50" relative="1" as="geometry">
            <mxPoint x="310" y="460" as="sourcePoint" />
            <mxPoint x="310" y="440" as="targetPoint" />
            <Array as="points" />
          </mxGeometry>
        </mxCell>
        <mxCell id="vx9EzyHT4CeqfJNpjVAX-24" value="&amp;lt;&amp;lt;include&amp;gt;&amp;gt;" style="edgeLabel;html=1;align=center;verticalAlign=middle;resizable=0;points=[];" vertex="1" connectable="0" parent="vx9EzyHT4CeqfJNpjVAX-21">
          <mxGeometry x="-0.1731" y="1" relative="1" as="geometry">
            <mxPoint as="offset" />
          </mxGeometry>
        </mxCell>
        <mxCell id="vx9EzyHT4CeqfJNpjVAX-22" value="" style="endArrow=none;html=1;rounded=0;" edge="1" parent="1" target="vx9EzyHT4CeqfJNpjVAX-7">
          <mxGeometry width="50" height="50" relative="1" as="geometry">
            <mxPoint x="200" y="490" as="sourcePoint" />
            <mxPoint x="590" y="380" as="targetPoint" />
            <Array as="points">
              <mxPoint x="200" y="600" />
            </Array>
          </mxGeometry>
        </mxCell>
      </root>
    </mxGraphModel>
  </diagram>
</mxfile>
